<?xml version="1.0" standalone="no"?>
<!DOCTYPE svg PUBLIC "-//W3C//DTD SVG 20010904//EN"
 "http://www.w3.org/TR/2001/REC-SVG-20010904/DTD/svg10.dtd">
<svg version="1.0" xmlns="http://www.w3.org/2000/svg"
 width="290.000000pt" height="150.000000pt" viewBox="0 0 290.000000 150.000000"
 preserveAspectRatio="xMidYMid meet">

<g transform="translate(0.000000,150.000000) scale(0.100000,-0.100000)"
fill="#000000" stroke="none">
<path d="M2350 1431 c0 -4 -16 -29 -36 -55 -20 -26 -34 -50 -31 -52 2 -3 26
-1 53 3 54 9 61 20 49 79 -3 20 -12 34 -20 34 -8 0 -15 -4 -15 -9z"/>
<path d="M1086 1412 c36 -32 117 -82 132 -82 9 0 23 -9 30 -20 7 -11 19 -20
27 -20 8 0 15 -4 15 -9 0 -18 48 -62 55 -51 9 15 -107 124 -159 150 -49 23
-115 44 -100 32z"/>
<path d="M2147 1403 c-20 -3 -38 -20 -68 -65 l-41 -60 43 7 c24 4 44 8 45 9 0
0 14 21 30 46 52 79 53 72 -9 63z"/>
<path d="M783 1335 c-33 -29 -53 -41 -56 -33 -4 8 -6 7 -6 -4 -1 -20 65 -139
86 -155 32 -25 32 -13 2 39 -51 86 -53 95 -21 113 24 14 25 15 3 9 -32 -8 -20
9 31 47 23 16 35 29 27 29 -8 0 -38 -20 -66 -45z"/>
<path d="M1908 1353 c-13 -3 -78 -92 -78 -106 0 -1 17 -1 39 1 27 3 42 10 49
25 6 12 21 37 32 55 l22 32 -24 -1 c-12 -1 -31 -3 -40 -6z"/>
<path d="M900 1319 c25 -5 61 -13 80 -17 23 -5 34 -13 32 -22 -3 -12 1 -11 14
2 28 27 8 37 -86 42 -73 5 -78 4 -40 -5z"/>
<path d="M1708 1313 c-18 -4 -74 -91 -65 -100 3 -3 18 -2 34 1 20 5 37 20 56
52 15 25 27 47 27 49 0 6 -28 5 -52 -2z"/>
<path d="M1541 1282 l-24 -4 7 -156 c7 -152 16 -218 16 -113 0 39 4 53 17 58
9 4 19 1 21 -5 2 -7 8 -9 14 -6 8 5 9 -21 4 -85 l-7 -91 105 3 106 2 0 37 c0
21 9 61 20 90 11 28 18 54 16 56 -2 2 -13 -21 -25 -50 -11 -29 -20 -46 -20
-38 -1 22 37 101 46 98 13 -4 84 78 75 87 -4 5 -2 5 4 2 6 -4 19 2 29 13 10
11 13 20 7 20 -6 0 -14 -5 -17 -10 -4 -6 -12 -4 -22 5 -9 9 -22 14 -30 11 -8
-3 -24 -6 -35 -6 -19 0 -19 -2 6 -35 15 -19 24 -40 21 -45 -3 -6 -28 -10 -54
-10 -46 0 -51 3 -82 45 -25 33 -41 44 -61 45 -28 0 -45 -14 -29 -25 6 -3 20
-19 31 -35 l21 -30 -30 0 c-27 0 -31 4 -41 40 -6 22 -24 55 -40 74 -20 23 -26
36 -19 43 14 14 1 20 -30 15z m246 -369 c-3 -10 -5 -2 -5 17 0 19 2 27 5 18 2
-10 2 -26 0 -35z"/>
<path d="M1090 1265 c-7 -9 -10 -19 -6 -22 8 -9 38 9 44 25 5 17 -23 15 -38
-3z"/>
<path d="M1030 1250 c-6 -11 -7 -20 -2 -20 6 0 12 9 15 20 3 11 3 20 1 20 -2
0 -8 -9 -14 -20z"/>
<path d="M612 1210 c0 -14 2 -19 5 -12 2 6 2 18 0 25 -3 6 -5 1 -5 -13z"/>
<path d="M656 1196 c-9 -14 -16 -27 -16 -30 0 -10 96 -96 108 -96 20 0 14 9
-40 59 -46 43 -51 50 -39 65 8 9 12 19 9 22 -3 2 -13 -7 -22 -20z"/>
<path d="M2290 1215 c0 -3 19 -26 41 -50 46 -50 52 -46 -58 -47 -56 0 -59 1
-98 46 -38 43 -45 46 -89 46 l-47 0 35 -44 c20 -23 36 -46 36 -50 0 -3 -29 -6
-63 -6 -51 0 -68 4 -82 20 -17 19 -17 21 1 43 10 12 4 9 -14 -7 -32 -30 -41
-43 -20 -30 7 4 8 3 4 -5 -4 -6 -11 -9 -16 -6 -12 7 -68 -67 -84 -112 -7 -21
-16 -59 -20 -84 l-7 -46 118 -5 c136 -7 153 -11 153 -44 0 -34 -26 -38 -236
-38 -170 -1 -181 -2 -173 -18 11 -21 2 -23 -35 -9 -17 7 -26 7 -29 -2 -2 -7
-8 -8 -13 -3 -5 5 -4 11 4 13 19 7 14 20 -9 26 -24 6 -56 -17 -39 -28 5 -3 10
-21 9 -38 -1 -30 -1 -30 -8 -7 -6 19 -10 4 -20 -60 -16 -119 -40 -344 -36
-348 5 -6 14 47 31 193 9 77 18 142 20 144 7 7 4 -49 -6 -124 -9 -70 -9 -70
21 -97 18 -17 29 -22 29 -13 0 17 39 30 52 17 6 -6 6 -17 -2 -32 -7 -13 -15
-18 -19 -12 -9 14 -84 10 -94 -6 -13 -20 3 -34 34 -30 l29 5 1 -61 c0 -41 3
-55 8 -41 5 11 6 25 3 30 -3 6 4 2 15 -8 11 -9 27 -17 35 -17 20 0 30 -24 16
-38 -8 -8 -16 -4 -29 11 -20 26 -26 23 -31 -16 -3 -26 1 -30 37 -43 53 -18 59
-18 70 8 15 33 60 46 93 27 15 -8 32 -25 37 -38 9 -20 15 -22 51 -18 22 2 53
10 70 18 24 12 29 21 32 54 5 78 9 85 50 85 38 0 71 14 60 25 -3 4 -24 9 -46
12 -30 4 -45 1 -60 -13 -11 -11 -27 -24 -34 -30 -7 -5 -20 -21 -30 -35 -14
-21 -17 -22 -23 -7 -5 12 4 28 29 53 20 20 36 30 36 23 0 -6 11 3 25 22 34 46
40 48 88 39 23 -4 71 -8 105 -9 77 0 111 17 143 74 23 41 29 118 51 669 l3 77
-52 0 c-29 0 -53 -2 -53 -5z m-472 -453 c2 -7 -5 -12 -17 -12 -14 0 -19 5 -14
15 6 17 25 15 31 -3z m67 -2 c-3 -5 -13 -10 -21 -10 -8 0 -14 5 -14 10 0 6 9
10 21 10 11 0 17 -4 14 -10z m-235 -10 c0 -5 -4 -10 -10 -10 -5 0 -10 5 -10
10 0 6 5 10 10 10 6 0 10 -4 10 -10z m80 -20 c0 -5 -4 -10 -10 -10 -5 0 -10 5
-10 10 0 6 5 10 10 10 6 0 10 -4 10 -10z m-82 -28 c2 -7 -3 -12 -12 -12 -9 0
-16 7 -16 16 0 17 22 14 28 -4z m162 8 c0 -5 -2 -10 -4 -10 -3 0 -8 5 -11 10
-3 6 -1 10 4 10 6 0 11 -4 11 -10z m170 1 c0 -5 9 -11 20 -14 11 -3 20 -12 20
-21 0 -9 -8 -16 -20 -16 -13 0 -20 7 -20 20 0 11 -4 20 -10 20 -5 0 -10 5 -10
10 0 6 5 10 10 10 6 0 10 -4 10 -9z m-370 -21 c0 -11 -4 -20 -10 -20 -5 0 -10
2 -10 4 0 2 -3 11 -6 20 -4 11 -1 16 10 16 9 0 16 -8 16 -20z m160 -1 c0 -5
-7 -9 -15 -9 -15 0 -20 12 -9 23 8 8 24 -1 24 -14z m-190 -25 c0 -8 -4 -14
-10 -14 -5 0 -10 9 -10 21 0 11 5 17 10 14 6 -3 10 -13 10 -21z m255 16 c3 -6
-1 -13 -10 -16 -19 -8 -30 0 -20 15 8 14 22 14 30 1z m-160 -20 c0 -9 -11 -16
-27 -18 -20 -2 -28 1 -28 12 0 8 6 17 13 19 21 9 42 2 42 -13z m220 -20 c-5
-8 -11 -8 -17 -2 -6 6 -7 16 -3 22 5 8 11 8 17 2 6 -6 7 -16 3 -22z m65 15 c0
-8 -7 -15 -15 -15 -8 0 -15 7 -15 15 0 8 7 15 15 15 8 0 15 -7 15 -15z m-200
-10 c0 -11 7 -13 29 -9 23 5 32 2 43 -15 7 -12 18 -21 25 -21 8 0 7 -9 -3 -30
-16 -31 -28 -37 -39 -20 -3 5 -12 7 -20 3 -22 -8 -51 5 -38 18 18 18 3 51 -22
47 -18 -4 -21 -1 -17 19 5 26 42 33 42 8z m-87 -32 c-10 -3 -10 -9 -1 -23 15
-24 4 -37 -17 -20 -26 22 -15 48 20 48 6 0 5 -2 -2 -5z m-47 -35 c-2 -11 0
-32 5 -45 5 -14 8 -28 6 -30 -8 -8 -67 33 -67 46 0 11 4 9 16 -5 8 -10 13 -13
9 -6 -4 7 -1 20 7 29 8 10 8 14 1 10 -13 -8 -27 8 -19 22 3 5 15 7 27 4 15 -4
19 -11 15 -25z m402 6 c15 -15 15 -17 -1 -29 -9 -7 -17 -17 -17 -24 0 -6 -7
-11 -15 -11 -12 0 -13 4 -5 19 14 27 13 34 -5 27 -8 -3 -15 -1 -15 4 0 6 7 10
15 10 8 0 15 5 15 10 0 14 9 12 28 -6z m-78 -25 c0 -5 -7 -9 -15 -9 -15 0 -20
12 -9 23 8 8 24 -1 24 -14z m-262 -32 c2 -10 -3 -17 -12 -17 -18 0 -29 16 -21
31 9 14 29 6 33 -14z m52 2 c0 -5 -7 -9 -15 -9 -15 0 -20 12 -9 23 8 8 24 -1
24 -14z m175 -9 c22 -25 11 -40 -31 -43 -24 -2 -30 2 -32 22 -6 41 33 54 63
21z m-110 -20 c3 -5 1 -10 -4 -10 -6 0 -11 5 -11 10 0 6 2 10 4 10 3 0 8 -4
11 -10z m160 0 c-3 -5 -10 -10 -16 -10 -5 0 -9 5 -9 10 0 6 7 10 16 10 8 0 12
-4 9 -10z m-287 -12 c18 -18 14 -38 -7 -38 -21 0 -31 17 -23 38 5 15 15 15 30
0z m70 -11 c4 -20 -25 -34 -40 -19 -15 15 -1 44 19 40 10 -2 19 -11 21 -21z
m252 7 c0 -8 -7 -22 -15 -30 -13 -14 -15 -13 -11 8 3 13 5 26 5 31 2 14 21 7
21 -9z m-185 -23 c7 -12 -12 -24 -25 -16 -11 7 -4 25 10 25 5 0 11 -4 15 -9z
m121 -6 c9 -8 11 -15 6 -15 -5 0 -15 7 -22 15 -7 8 -9 15 -6 15 4 0 14 -7 22
-15z m84 -15 c0 -5 -4 -10 -9 -10 -5 0 -7 -8 -4 -19 3 -14 -2 -20 -24 -24 -15
-3 -29 -4 -31 -2 -2 1 9 17 23 34 27 31 45 40 45 21z m-120 -36 c13 -33 14
-32 -15 -30 -14 0 -25 4 -25 7 0 4 -9 9 -20 12 -11 3 -20 11 -20 17 0 7 6 10
13 7 8 -3 20 -1 28 4 22 14 29 11 39 -17z m-120 -23 c0 -11 3 -27 7 -37 5 -13
3 -16 -10 -11 -8 3 -17 1 -19 -5 -6 -17 -40 0 -36 17 2 9 7 15 13 15 5 -1 12
8 17 19 9 26 28 27 28 2z m30 9 c0 -5 -2 -10 -4 -10 -3 0 -8 5 -11 10 -3 6 -1
10 4 10 6 0 11 -4 11 -10z m-114 -36 c8 -20 14 -38 12 -39 -2 -2 -15 -1 -29 2
-45 8 -60 73 -18 73 13 0 25 -12 35 -36z m254 7 c0 -21 -13 -41 -26 -41 -14 0
-19 31 -7 43 10 10 33 8 33 -2z m-140 -11 c0 -5 -2 -10 -4 -10 -3 0 -8 5 -11
10 -3 6 -1 10 4 10 6 0 11 -4 11 -10z m45 -30 c-3 -5 -10 -10 -16 -10 -5 0 -9
5 -9 10 0 6 7 10 16 10 8 0 12 -4 9 -10z m-64 -23 c-1 -12 -15 -9 -19 4 -3 6
1 10 8 8 6 -3 11 -8 11 -12z m73 -68 c-3 -5 -10 -7 -15 -3 -5 3 -7 10 -3 15 3
5 10 7 15 3 5 -3 7 -10 3 -15z"/>
<path d="M1315 1170 c-3 -5 -1 -10 4 -10 6 0 11 5 11 10 0 6 -2 10 -4 10 -3 0
-8 -4 -11 -10z"/>
<path d="M905 1140 c3 -5 12 -10 20 -10 8 0 17 5 20 10 4 6 -5 10 -20 10 -15
0 -24 -4 -20 -10z"/>
<path d="M1268 1093 c-28 -4 -36 -17 -18 -28 6 -4 10 -55 10 -119 0 -89 -3
-116 -15 -126 -13 -11 -15 1 -17 96 -1 107 -2 106 -9 -46 -7 -166 -2 -310 13
-310 4 0 6 14 3 32 -5 27 -4 30 10 18 12 -10 15 -42 17 -169 l2 -156 3 148 c3
121 6 147 18 147 12 0 15 -25 17 -147 l2 -148 3 143 c3 119 6 142 19 142 13 0
14 -20 10 -142 -3 -102 -2 -123 4 -73 4 39 8 105 9 148 1 56 5 77 14 77 10 0
13 -27 11 -117 -1 -65 0 -95 2 -68 10 147 17 195 26 195 6 0 8 -53 4 -147 -3
-114 -3 -129 4 -63 4 47 10 118 13 158 5 71 11 92 23 79 4 -3 1 -74 -6 -157
-7 -83 -10 -153 -8 -155 3 -3 10 61 17 142 15 177 19 212 28 227 4 6 8 76 8
156 1 80 0 129 -2 110 -9 -102 -14 -122 -28 -110 -14 11 -14 70 0 180 3 25 2
31 -5 20 -5 -8 -10 -43 -10 -77 0 -65 -6 -93 -21 -93 -5 0 -14 10 -19 23 -7
17 -9 18 -9 5 -1 -10 -8 -18 -18 -18 -14 0 -15 11 -11 98 4 63 3 83 -3 57 -4
-22 -8 -66 -8 -97 -1 -44 -5 -58 -16 -58 -12 0 -15 21 -17 112 -2 64 -7 112
-13 113 -5 1 -22 0 -37 -2z m42 -128 c0 -58 -2 -105 -4 -105 -2 0 -11 -3 -20
-6 -14 -5 -16 7 -16 93 0 93 8 123 32 123 4 0 8 -47 8 -105z m103 -116 c119
-64 58 -259 -82 -259 -31 0 -48 7 -73 29 -31 28 -33 33 -33 96 0 65 1 67 42
106 35 32 49 39 83 39 23 0 51 -5 63 -11z"/>
<path d="M1350 822 c-59 -18 -95 -35 -81 -40 6 -2 11 -15 11 -28 0 -13 5 -24
10 -24 6 0 10 7 10 15 0 8 5 15 10 15 6 0 10 -4 10 -10 0 -20 40 -9 70 20 53
52 36 75 -40 52z m60 -6 c0 -3 -4 -8 -10 -11 -5 -3 -10 -1 -10 4 0 6 5 11 10
11 6 0 10 -2 10 -4z m-50 -23 c0 -10 -4 -24 -9 -32 -12 -19 -24 3 -16 29 8 25
25 26 25 3z m-58 -15 c-7 -7 -12 -8 -12 -2 0 14 12 26 19 19 2 -3 -1 -11 -7
-17z"/>
<path d="M1440 746 c0 -8 -4 -18 -10 -21 -6 -3 -7 1 -4 9 5 12 0 16 -19 16
-14 0 -29 -4 -32 -10 -3 -5 -16 -10 -29 -10 -12 0 -26 -4 -31 -9 -6 -5 -21
-11 -35 -13 -19 -2 -26 -10 -28 -32 -5 -38 11 -53 40 -39 39 19 62 26 76 24 6
-1 12 6 12 15 0 13 3 14 15 4 17 -14 35 -5 36 18 0 11 3 12 6 5 10 -25 23 -12
23 22 0 19 -4 35 -10 35 -5 0 -10 -6 -10 -14z m-40 -20 c0 -3 -4 -8 -10 -11
-5 -3 -10 -1 -10 4 0 6 5 11 10 11 6 0 10 -2 10 -4z m-60 -36 c0 -16 -4 -30
-10 -30 -11 0 -14 43 -3 53 11 12 13 8 13 -23z m-48 -32 c-16 -16 -37 4 -28
28 6 16 8 16 23 1 13 -13 15 -19 5 -29z"/>
<path d="M1416 1084 c-12 -12 -16 -33 -14 -87 l2 -72 3 73 c2 39 8 72 12 72 5
0 11 7 15 15 7 19 1 19 -18 -1z"/>
<path d="M1490 1090 c0 -5 -6 -10 -14 -10 -7 0 -19 -7 -26 -15 -9 -10 -9 -15
-1 -15 6 0 11 5 11 10 0 6 6 10 14 10 10 0 16 -14 19 -42 3 -37 4 -35 5 15 1
31 0 57 -3 57 -3 0 -5 -4 -5 -10z"/>
<path d="M852 1078 c-18 -18 -15 -43 8 -63 25 -23 33 -15 36 35 2 32 -1 40
-15 40 -9 0 -22 -5 -29 -12z"/>
<path d="M1010 1070 c0 -5 5 -10 10 -10 6 0 10 5 10 10 0 6 -4 10 -10 10 -5 0
-10 -4 -10 -10z"/>
<path d="M1040 1071 c0 -5 5 -13 10 -16 6 -3 10 -2 10 4 0 5 -4 13 -10 16 -5
3 -10 2 -10 -4z"/>
<path d="M1123 995 c0 -38 2 -53 4 -32 2 20 2 52 0 70 -2 17 -4 1 -4 -38z"/>
<path d="M1221 1044 c0 -11 3 -14 6 -6 3 7 2 16 -1 19 -3 4 -6 -2 -5 -13z"/>
<path d="M585 1020 c-9 -39 -8 -177 0 -224 6 -27 12 -36 24 -33 9 2 14 10 12
18 -26 98 -32 142 -28 202 6 71 3 86 -8 37z"/>
<path d="M1177 825 c3 -126 9 -293 13 -370 6 -101 7 -72 3 105 -3 135 -9 301
-13 370 -6 87 -6 55 -3 -105z"/>
<path d="M533 960 c0 -41 2 -58 4 -37 2 20 2 54 0 75 -2 20 -4 3 -4 -38z"/>
<path d="M1572 990 c0 -19 2 -27 5 -17 2 9 2 25 0 35 -3 9 -5 1 -5 -18z"/>
<path d="M762 968 c-15 -15 -15 -51 0 -66 23 -23 34 -12 33 33 0 45 -11 55
-33 33z"/>
<path d="M1518 895 c-31 -286 -58 -578 -55 -582 6 -6 13 51 42 340 15 143 25
269 23 280 -2 12 -7 -5 -10 -38z"/>
<path d="M870 930 c0 -5 5 -10 10 -10 6 0 10 5 10 10 0 6 -4 10 -10 10 -5 0
-10 -4 -10 -10z"/>
<path d="M1562 910 c0 -19 2 -27 5 -17 2 9 2 25 0 35 -3 9 -5 1 -5 -18z"/>
<path d="M1133 845 c0 -44 3 -125 7 -180 6 -96 7 -97 7 -25 0 41 -3 122 -7
180 -7 103 -7 104 -7 25z"/>
<path d="M850 840 c-14 -27 -4 -57 20 -65 28 -9 40 2 40 34 0 48 -40 69 -60
31z"/>
<path d="M998 818 c-12 -10 -13 -18 -7 -33 9 -18 9 -18 5 3 -3 15 0 22 7 19 7
-2 12 -13 11 -25 0 -12 3 -19 7 -16 9 5 7 64 -2 64 -3 0 -12 -6 -21 -12z"/>
<path d="M678 743 c-42 -33 -58 -53 -58 -70 0 -13 4 -22 9 -18 5 3 12 -4 16
-15 7 -23 25 -26 43 -8 17 17 15 43 -3 58 -14 12 -10 19 32 56 64 58 33 55
-39 -3z"/>
<path d="M1011 735 c-14 -7 -19 -15 -13 -19 6 -3 13 0 15 6 3 7 6 1 6 -14 1
-16 -4 -28 -11 -28 -6 0 -8 -3 -5 -6 4 -4 13 -2 20 4 8 7 16 9 19 6 3 -3 8 9
10 25 5 35 -8 44 -41 26z m26 -17 c-3 -8 -6 -5 -6 6 -1 11 2 17 5 13 3 -3 4
-12 1 -19z"/>
<path d="M781 685 c-49 -78 -56 -101 -37 -130 29 -44 62 -58 147 -63 84 -5 87
-3 69 42 -8 22 -16 26 -48 26 -41 0 -98 16 -120 33 -10 8 -5 22 19 66 18 31
37 59 43 63 6 4 -1 8 -17 8 -22 0 -33 -9 -56 -45z"/>
<path d="M915 710 c3 -5 8 -10 11 -10 2 0 4 5 4 10 0 6 -5 10 -11 10 -5 0 -7
-4 -4 -10z"/>
<path d="M1154 470 c0 -52 1 -74 3 -47 2 26 2 68 0 95 -2 26 -3 4 -3 -48z"/>
<path d="M1228 463 c5 -163 8 -179 10 -45 1 72 -1 132 -5 132 -5 0 -7 -39 -5
-87z"/>
<path d="M746 451 c5 -5 27 -12 49 -15 l40 -6 -35 14 c-41 17 -68 20 -54 7z"/>
<path d="M858 423 c7 -3 16 -2 19 1 4 3 -2 6 -13 5 -11 0 -14 -3 -6 -6z"/>
<path d="M940 420 c-24 -8 -23 -8 8 -9 20 -1 31 3 27 9 -3 6 -7 10 -8 9 -1 -1
-13 -5 -27 -9z"/>
<path d="M1163 320 c0 -30 2 -43 4 -27 2 15 2 39 0 55 -2 15 -4 2 -4 -28z"/>
<path d="M1361 314 c0 -11 3 -14 6 -6 3 7 2 16 -1 19 -3 4 -6 -2 -5 -13z"/>
<path d="M1320 241 c0 -14 20 -25 102 -59 72 -30 145 -44 123 -24 -6 5 -48 24
-95 41 -47 18 -95 37 -107 42 -13 5 -23 5 -23 0z"/>
<path d="M1138 217 c-32 -6 -58 -13 -58 -16 0 -4 46 -28 102 -54 l102 -48 70
16 c110 25 136 33 109 34 -13 1 -23 6 -23 12 0 7 -12 9 -34 5 -25 -5 -52 2
-116 29 -45 19 -85 34 -88 34 -4 -1 -33 -6 -64 -12z m289 -73 c-3 -3 -12 -4
-19 -1 -8 3 -5 6 6 6 11 1 17 -2 13 -5z"/>
<path d="M1561 136 c2 -2 18 -6 34 -10 22 -5 26 -4 15 4 -14 9 -59 15 -49 6z"/>
<path d="M1638 113 c7 -3 16 -2 19 1 4 3 -2 6 -13 5 -11 0 -14 -3 -6 -6z"/>
</g>
</svg>
